<?xml version="1.0" encoding="UTF-8" standalone="no"?>
<svg
   id="svg"
   width="400"
   height="400"
   viewBox="0, 0, 400,400"
   version="1.1"
   sodipodi:docname="hummingbird.svg"
   inkscape:version="1.2 (dc2aeda, 2022-05-15)"
   xmlns:inkscape="http://www.inkscape.org/namespaces/inkscape"
   xmlns:sodipodi="http://sodipodi.sourceforge.net/DTD/sodipodi-0.dtd"
   xmlns="http://www.w3.org/2000/svg"
   xmlns:svg="http://www.w3.org/2000/svg">
  <defs
     id="defs11568" />
  <sodipodi:namedview
     id="namedview11566"
     pagecolor="#ffffff"
     bordercolor="#000000"
     borderopacity="0.25"
     inkscape:showpageshadow="2"
     inkscape:pageopacity="0.0"
     inkscape:pagecheckerboard="0"
     inkscape:deskcolor="#d1d1d1"
     showgrid="false"
     inkscape:zoom="0.95563048"
     inkscape:cx="-133.41977"
     inkscape:cy="297.70921"
     inkscape:window-width="1728"
     inkscape:window-height="971"
     inkscape:window-x="0"
     inkscape:window-y="38"
     inkscape:window-maximized="1"
     inkscape:current-layer="svg" />
  <g
     id="svgg"
     transform="translate(-538.98305,-283.05085)"
     style="fill:#213547;fill-opacity:1"
     inkscape:export-filename="hummingbird-dark.png"
     inkscape:export-xdpi="96"
     inkscape:export-ydpi="96">
    <path
       id="path0"
       d="m 255.333,79.002 c -3.533,0.335 -7.117,0.966 -10,1.759 -1.416,0.39 -5.729,1.778 -5.916,1.903 -0.092,0.062 -0.542,0.247 -1,0.413 -2.025,0.732 -6.991,3.197 -8.276,4.109 -0.243,0.173 -0.518,0.314 -0.611,0.314 -0.093,0 -0.194,0.059 -0.224,0.132 -0.031,0.073 -0.356,0.311 -0.723,0.53 -0.619,0.37 -3.395,2.31 -3.583,2.503 -0.046,0.048 -0.646,0.532 -1.333,1.076 -1.435,1.136 -5.794,5.439 -6.764,6.676 -0.359,0.458 -0.695,0.87 -0.746,0.916 -0.114,0.103 -1.15,1.493 -1.49,2.002 -0.138,0.205 -0.329,0.457 -0.426,0.56 -0.978,1.05 -4.297,7.396 -5.153,9.855 -0.159,0.458 -0.352,0.983 -0.427,1.167 -0.076,0.183 -0.298,0.896 -0.495,1.583 -0.197,0.688 -0.42,1.438 -0.496,1.667 -0.216,0.65 -0.643,2.633 -0.84,3.903 -0.098,0.635 -0.206,1.197 -0.239,1.25 -0.032,0.053 -0.186,1.71 -0.34,3.682 -0.453,5.777 0.048,11.034 1.691,17.748 1.05,4.29 1.287,4.636 1.142,1.667 -0.235,-4.795 0.634,-13.502 1.737,-17.417 0.091,-0.321 0.323,-1.146 0.517,-1.833 0.194,-0.688 0.415,-1.4 0.491,-1.584 0.076,-0.183 0.309,-0.82 0.519,-1.416 0.209,-0.596 0.591,-1.546 0.849,-2.111 0.258,-0.564 0.47,-1.069 0.47,-1.121 0,-0.051 0.158,-0.339 0.351,-0.639 0.193,-0.3 0.298,-0.396 0.234,-0.213 -0.064,0.184 -0.215,0.934 -0.336,1.667 -0.122,0.733 -0.264,1.521 -0.316,1.75 -0.632,2.767 -0.655,13.334 -0.031,13.958 0.079,0.079 0.362,-1.328 0.511,-2.541 0.27,-2.198 1.986,-8.622 2.76,-10.334 0.083,-0.183 0.307,-0.746 0.498,-1.25 0.613,-1.618 0.723,-1.862 2.068,-4.578 1.185,-2.395 2.654,-5.032 2.926,-5.255 0.056,-0.046 0.283,-0.383 0.505,-0.75 0.221,-0.367 0.461,-0.742 0.533,-0.833 0.072,-0.092 0.614,-0.818 1.204,-1.613 1.555,-2.095 1.61,-2.157 4.258,-4.806 2.803,-2.803 3.235,-3.164 5.952,-4.975 0.843,-0.563 1.606,-1.023 1.694,-1.023 0.089,0 0.186,-0.056 0.216,-0.125 0.031,-0.069 0.619,-0.397 1.306,-0.73 7.622,-3.692 15.878,-3.492 23.5,0.569 0.688,0.366 1.418,0.749 1.624,0.851 0.205,0.102 0.374,0.241 0.375,0.31 0,0.069 0.08,0.125 0.176,0.125 0.096,0 0.798,0.375 1.559,0.833 0.762,0.459 1.431,0.834 1.488,0.834 0.056,0 0.498,0.178 0.982,0.396 3.536,1.595 10.109,2.232 13.213,1.28 0.275,-0.084 0.837,-0.202 1.25,-0.261 0.412,-0.06 0.975,-0.176 1.25,-0.258 0.275,-0.081 1.062,-0.308 1.75,-0.504 1.563,-0.445 4.195,-1.328 4.416,-1.481 0.092,-0.063 0.542,-0.25 1,-0.416 1.068,-0.385 2.123,-0.856 4.952,-2.211 2.755,-1.319 2.813,-0.907 -0.604,-4.295 -2.516,-2.496 -3.182,-3.103 -4.162,-3.791 -0.285,-0.201 -0.604,-0.442 -0.707,-0.537 -0.103,-0.095 -0.356,-0.285 -0.561,-0.422 -0.205,-0.138 -0.533,-0.372 -0.729,-0.522 -2.147,-1.635 -7.353,-4.258 -10.855,-5.469 -6.867,-2.375 -15.259,-3.368 -22.584,-2.674 m -7.796,26.651 c -4.492,1.663 -5.775,7.399 -2.42,10.822 3.637,3.711 9.824,2.077 11.124,-2.94 1.318,-5.085 -3.783,-9.704 -8.704,-7.882 m -40.326,92.218 c -0.094,0.117 -0.225,0.4 -0.292,0.629 -0.32,1.09 -3.795,7.632 -4.25,8 -0.057,0.046 -0.284,0.383 -0.506,0.75 -0.221,0.367 -0.462,0.742 -0.535,0.833 -0.074,0.092 -0.737,0.99 -1.474,1.997 -0.737,1.006 -1.397,1.868 -1.465,1.916 -0.069,0.048 -0.233,0.244 -0.365,0.435 -1.147,1.658 -7.179,7.978 -10.253,10.742 -2.339,2.102 -3.431,3.055 -4.481,3.91 -0.451,0.367 -0.938,0.779 -1.083,0.917 -0.145,0.137 -0.787,0.661 -1.427,1.163 -0.64,0.502 -1.201,0.957 -1.247,1.011 -0.046,0.054 -0.597,0.49 -1.226,0.969 -0.629,0.478 -1.253,0.979 -1.387,1.113 -0.134,0.134 -0.295,0.245 -0.357,0.247 -0.062,0.001 -0.376,0.225 -0.696,0.498 -0.753,0.64 -0.808,0.682 -1.5,1.165 -0.321,0.223 -0.668,0.484 -0.772,0.579 -0.103,0.094 -0.352,0.284 -0.554,0.422 -0.202,0.137 -1.294,0.925 -2.428,1.75 -1.133,0.825 -2.38,1.725 -2.771,2 -1.674,1.179 -3.156,2.202 -4.559,3.148 -0.825,0.557 -1.537,1.051 -1.583,1.098 -0.046,0.048 -0.533,0.386 -1.083,0.751 -0.55,0.366 -1.038,0.707 -1.084,0.759 -0.046,0.052 -0.383,0.274 -0.75,0.494 -0.366,0.219 -0.704,0.444 -0.75,0.5 -0.046,0.055 -0.383,0.28 -0.75,0.5 -0.366,0.219 -0.704,0.444 -0.75,0.5 -0.046,0.055 -0.383,0.28 -0.75,0.5 -0.366,0.219 -0.704,0.445 -0.75,0.501 -0.046,0.056 -0.571,0.393 -1.166,0.749 -0.596,0.355 -1.121,0.692 -1.167,0.748 -0.046,0.057 -0.383,0.284 -0.75,0.505 -0.367,0.222 -0.742,0.463 -0.833,0.537 -0.271,0.218 -6.107,4.019 -6.834,4.451 -0.776,0.46 -0.655,0.318 0.5,-0.588 0.459,-0.359 0.871,-0.693 0.917,-0.741 0.046,-0.048 0.608,-0.498 1.249,-1 0.641,-0.502 1.316,-1.037 1.5,-1.19 0.184,-0.153 0.672,-0.552 1.084,-0.888 1.809,-1.474 2.056,-1.677 2.231,-1.838 0.102,-0.093 0.561,-0.468 1.019,-0.833 0.459,-0.365 0.871,-0.709 0.917,-0.765 0.046,-0.055 0.683,-0.606 1.417,-1.224 1.54,-1.299 3.284,-2.823 3.917,-3.424 0.241,-0.229 1.033,-0.941 1.76,-1.581 2.749,-2.419 9.85,-9.662 11.919,-12.156 0.222,-0.268 0.516,-0.607 0.654,-0.753 0.137,-0.147 0.66,-0.79 1.162,-1.43 0.502,-0.64 0.956,-1.201 1.008,-1.247 0.053,-0.046 0.277,-0.346 0.499,-0.667 0.222,-0.321 0.48,-0.668 0.575,-0.771 0.641,-0.7 2.062,-2.981 1.893,-3.041 -0.097,-0.034 -0.223,0.01 -0.282,0.097 -0.091,0.137 -5.005,3.853 -6.015,4.549 -0.2,0.137 -0.527,0.377 -0.727,0.533 -0.2,0.155 -1.301,0.96 -2.447,1.789 -1.145,0.828 -2.209,1.601 -2.362,1.717 -0.154,0.116 -0.416,0.305 -0.583,0.421 -0.168,0.115 -0.83,0.583 -1.471,1.04 -0.642,0.456 -1.28,0.908 -1.417,1.004 -2.097,1.468 -4.806,3.36 -5,3.494 -0.138,0.094 -0.752,0.527 -1.365,0.962 -0.613,0.434 -1.952,1.352 -2.976,2.04 -1.024,0.687 -1.948,1.325 -2.053,1.416 -0.105,0.092 -0.641,0.466 -1.19,0.831 -0.55,0.366 -1.037,0.705 -1.083,0.754 -0.046,0.05 -0.683,0.492 -1.416,0.983 -2.57,1.721 -4.334,2.925 -4.417,3.014 -0.046,0.049 -0.532,0.388 -1.08,0.754 -0.549,0.365 -1.074,0.726 -1.167,0.802 -0.093,0.076 -1.032,0.73 -2.086,1.452 -2.132,1.461 -1.989,1.362 -3.537,2.454 -0.615,0.434 -1.613,1.127 -2.216,1.54 -0.603,0.412 -1.236,0.862 -1.407,1 -0.17,0.137 -0.447,0.344 -0.616,0.46 -0.554,0.378 -2.634,1.858 -2.92,2.076 -0.154,0.118 -0.444,0.326 -0.645,0.464 -0.201,0.137 -1.288,0.925 -2.416,1.75 -1.128,0.825 -2.216,1.612 -2.418,1.75 -0.201,0.137 -0.451,0.327 -0.554,0.422 -0.103,0.095 -0.451,0.355 -0.771,0.579 -0.693,0.482 -0.747,0.525 -1.5,1.164 -0.321,0.273 -0.635,0.497 -0.697,0.499 -0.062,10e-4 -0.212,0.097 -0.333,0.213 -0.121,0.116 -0.895,0.732 -1.72,1.367 -0.825,0.636 -1.538,1.201 -1.584,1.256 -0.046,0.054 -0.346,0.28 -0.666,0.502 -0.321,0.222 -0.667,0.481 -0.769,0.576 -0.176,0.162 -0.412,0.357 -2.231,1.839 -0.413,0.336 -0.9,0.736 -1.084,0.889 -0.183,0.152 -0.708,0.577 -1.166,0.944 -0.459,0.366 -0.871,0.709 -0.917,0.761 -0.046,0.053 -0.946,0.837 -2,1.743 -4.962,4.266 -11.898,11.059 -15.07,14.761 -0.268,0.312 -0.718,0.832 -1,1.155 -0.282,0.323 -0.813,0.956 -1.18,1.406 -0.367,0.451 -0.78,0.938 -0.919,1.082 -0.139,0.145 -0.436,0.524 -0.66,0.844 -0.225,0.32 -0.494,0.656 -0.598,0.748 -1.032,0.908 -8.24,11.595 -8.24,12.217 0,0.094 -0.056,0.197 -0.125,0.227 -0.068,0.031 -0.265,0.318 -0.437,0.639 -0.171,0.321 -0.54,0.996 -0.818,1.5 -0.922,1.671 -2.323,4.558 -3.276,6.75 -0.199,0.458 -0.431,0.983 -0.515,1.167 -0.084,0.183 -0.307,0.745 -0.495,1.25 -0.189,0.504 -0.408,1.066 -0.488,1.25 -0.15,0.346 -1.036,2.836 -1.422,4 -0.599,1.803 -0.836,2.597 -1.319,4.416 -0.784,2.958 -0.931,3.546 -1.109,4.436 -0.108,0.539 -0.303,1.506 -0.432,2.148 -1.212,5.996 -1.898,13.346 -1.898,20.333 0,4.041 0.059,5.291 0.503,10.75 0.425,5.215 1.366,11.847 2.412,17 0.139,0.688 0.34,1.723 0.446,2.301 0.221,1.206 0.39,1.165 0.885,-0.218 0.41,-1.142 1.739,-4.554 2.013,-5.166 0.124,-0.275 0.495,-1.175 0.825,-2 0.33,-0.825 0.667,-1.65 0.75,-1.834 0.082,-0.183 0.307,-0.708 0.5,-1.166 0.472,-1.119 0.549,-1.294 1.239,-2.807 0.327,-0.718 0.595,-1.342 0.595,-1.385 0,-0.044 0.18,-0.468 0.401,-0.944 0.22,-0.475 0.586,-1.277 0.814,-1.781 0.611,-1.357 1.407,-3.089 2.067,-4.5 0.83,-1.775 6.287,-12.719 6.94,-13.917 0.299,-0.55 0.925,-1.712 1.39,-2.583 1.702,-3.187 2.587,-4.789 3.325,-6.022 0.31,-0.516 0.563,-0.981 0.563,-1.034 0,-0.052 0.45,-0.84 1,-1.751 0.55,-0.91 1,-1.738 1,-1.841 0,-0.102 0.075,-0.185 0.166,-0.185 0.092,0 0.167,-0.081 0.167,-0.179 0,-0.098 0.225,-0.505 0.5,-0.905 0.275,-0.399 0.5,-0.789 0.5,-0.865 0,-0.077 0.262,-0.529 0.583,-1.005 0.321,-0.477 0.584,-0.938 0.584,-1.026 0,-0.088 0.056,-0.184 0.125,-0.215 0.068,-0.03 0.275,-0.323 0.458,-0.651 0.737,-1.316 5.109,-8.21 5.541,-8.738 0.075,-0.091 0.317,-0.466 0.539,-0.833 0.221,-0.367 0.445,-0.704 0.496,-0.75 0.052,-0.046 0.3,-0.402 0.553,-0.792 0.382,-0.589 0.799,-1.011 0.576,-0.583 -0.036,0.069 -0.197,0.425 -0.358,0.792 -0.161,0.366 -0.469,1.041 -0.685,1.5 -0.672,1.43 -1.412,3.102 -1.412,3.193 0,0.047 -0.232,0.586 -0.516,1.196 -0.284,0.611 -0.663,1.486 -0.841,1.944 -0.299,0.767 -0.6,1.482 -0.982,2.333 -0.082,0.184 -0.418,1.009 -0.747,1.834 -0.328,0.825 -0.668,1.65 -0.754,1.833 -0.086,0.183 -0.533,1.346 -0.993,2.583 -0.461,1.238 -0.904,2.4 -0.985,2.584 -0.168,0.379 -1.458,3.958 -2.012,5.583 -0.203,0.596 -0.434,1.233 -0.514,1.417 -0.08,0.183 -0.531,1.533 -1.004,3 -0.472,1.466 -0.919,2.816 -0.992,3 -0.073,0.183 -0.374,1.12 -0.668,2.083 -0.293,0.962 -0.674,2.191 -0.846,2.73 -0.172,0.539 -0.313,1.108 -0.313,1.264 0,0.156 -0.056,0.34 -0.125,0.409 -0.068,0.068 -0.212,0.475 -0.318,0.902 -0.107,0.428 -0.318,1.191 -0.469,1.695 -0.151,0.504 -0.376,1.292 -0.499,1.75 -0.704,2.628 -1.314,4.946 -1.512,5.75 -0.124,0.504 -0.342,1.385 -0.485,1.958 -0.862,3.472 -1.402,5.866 -2.023,8.959 -0.608,3.033 -0.744,3.732 -0.993,5.083 -0.354,1.931 -0.687,4.056 -0.983,6.282 -0.137,1.026 -0.299,2.066 -0.36,2.312 l -0.112,0.446 1.148,-0.089 c 3.553,-0.277 10.639,-1.647 14.148,-2.735 1.985,-0.615 3.855,-1.247 4.123,-1.392 0.159,-0.087 0.373,-0.157 0.475,-0.157 0.102,0 0.421,-0.106 0.71,-0.236 0.289,-0.13 1.275,-0.55 2.192,-0.933 2.833,-1.186 7.967,-3.959 9.522,-5.143 0.196,-0.15 0.524,-0.384 0.729,-0.522 0.205,-0.137 0.458,-0.327 0.561,-0.422 0.103,-0.095 0.451,-0.356 0.771,-0.581 0.695,-0.487 0.99,-0.729 2.696,-2.214 1.629,-1.417 3.153,-2.937 4.32,-4.308 0.496,-0.582 0.953,-1.097 1.016,-1.145 0.063,-0.048 0.718,-0.91 1.456,-1.917 0.737,-1.006 1.404,-1.906 1.481,-2 0.833,-1.009 3.964,-6.991 4.622,-8.829 0.164,-0.459 0.36,-0.905 0.437,-0.992 0.076,-0.087 0.139,-0.275 0.14,-0.417 0.001,-0.142 0.106,-0.459 0.234,-0.705 0.129,-0.246 0.288,-0.694 0.354,-0.995 0.066,-0.301 0.182,-0.662 0.257,-0.803 0.075,-0.14 0.294,-0.817 0.486,-1.505 0.192,-0.687 0.423,-1.512 0.513,-1.833 0.561,-1.991 1.308,-6.383 1.743,-10.25 0.839,-7.461 1.64,-12.663 2.502,-16.25 0.605,-2.516 0.728,-2.989 1.151,-4.417 0.615,-2.077 1.618,-5.019 2.101,-6.167 0.077,-0.183 0.298,-0.708 0.491,-1.166 0.194,-0.459 0.414,-0.984 0.49,-1.167 0.507,-1.227 3.08,-6.28 3.878,-7.617 0.531,-0.89 0.966,-1.696 0.966,-1.792 0,-0.096 0.075,-0.174 0.166,-0.174 0.092,0 0.167,-0.078 0.167,-0.174 0,-0.095 0.14,-0.376 0.312,-0.625 0.172,-0.248 1.009,-1.501 1.861,-2.785 1.303,-1.963 4.822,-6.807 5.146,-7.083 0.054,-0.046 0.398,-0.458 0.764,-0.917 1.244,-1.555 3.816,-4.594 4.584,-5.414 0.137,-0.147 0.887,-0.976 1.666,-1.843 0.779,-0.867 3.332,-3.489 5.672,-5.826 4.246,-4.239 4.701,-4.676 7.984,-7.667 0.956,-0.871 1.859,-1.696 2.007,-1.833 0.35,-0.324 1.336,-1.186 2.669,-2.333 0.586,-0.505 1.184,-1.03 1.328,-1.167 0.144,-0.138 0.974,-0.844 1.843,-1.57 0.869,-0.726 1.656,-1.401 1.747,-1.5 0.092,-0.099 0.542,-0.48 1,-0.846 1.118,-0.895 1.589,-1.285 1.907,-1.584 0.147,-0.138 0.79,-0.661 1.43,-1.163 0.64,-0.502 1.201,-0.954 1.247,-1.005 0.046,-0.051 0.458,-0.391 0.916,-0.754 0.459,-0.364 0.871,-0.702 0.917,-0.753 0.046,-0.05 0.758,-0.611 1.583,-1.247 0.825,-0.636 1.581,-1.232 1.679,-1.325 0.099,-0.093 0.528,-0.432 0.953,-0.753 1.687,-1.271 1.231,-1.123 -4.215,1.367 -1.344,0.614 -11.536,5.675 -12.333,6.124 -0.321,0.18 -1.296,0.716 -2.167,1.189 -2.648,1.44 -3.39,1.856 -4.038,2.263 -0.342,0.215 -0.663,0.39 -0.714,0.39 -0.175,0 -9.657,5.755 -11.248,6.827 -0.138,0.092 -1.187,0.787 -2.333,1.544 -1.146,0.756 -2.159,1.436 -2.25,1.511 -0.092,0.074 -1.18,0.853 -2.417,1.73 -2.216,1.57 -5.504,4.018 -5.667,4.218 -0.046,0.057 -0.346,0.286 -0.666,0.509 -0.321,0.224 -0.734,0.533 -0.917,0.686 -0.183,0.154 -1.121,0.933 -2.083,1.731 -0.963,0.798 -1.788,1.498 -1.834,1.556 -0.046,0.058 -0.571,0.514 -1.166,1.014 -3.036,2.549 -8.835,8.69 -11.167,11.826 -1.055,1.417 -1.135,1.413 -0.589,-0.037 1.435,-3.812 5.02,-10.438 6.961,-12.865 0.074,-0.091 0.521,-0.691 0.995,-1.333 0.474,-0.642 0.907,-1.204 0.963,-1.25 0.057,-0.046 0.286,-0.345 0.509,-0.664 0.224,-0.32 0.52,-0.701 0.659,-0.847 0.138,-0.146 0.434,-0.484 0.657,-0.752 1.672,-2.01 2.523,-2.92 5.843,-6.244 2.064,-2.067 4.348,-4.279 5.077,-4.917 0.729,-0.638 1.447,-1.272 1.595,-1.409 0.88,-0.813 3.015,-2.657 4.146,-3.584 0.224,-0.183 0.529,-0.446 0.678,-0.583 0.148,-0.138 0.642,-0.55 1.096,-0.916 1.156,-0.932 1.592,-1.295 1.903,-1.584 0.148,-0.138 1.204,-1 2.347,-1.917 1.142,-0.916 2.157,-1.741 2.255,-1.833 0.099,-0.092 0.511,-0.438 0.917,-0.77 1.778,-1.454 7.928,-6.586 8.164,-6.813 0.38,-0.366 2.34,-2.069 2.492,-2.167 0.445,-0.285 3.711,-3.38 6.42,-6.083 2.956,-2.95 4.341,-4.431 6.079,-6.5 0.385,-0.459 0.844,-1.005 1.021,-1.215 0.838,-0.996 2.999,-3.946 3.932,-5.369 0.571,-0.87 1.116,-1.674 1.209,-1.784 0.094,-0.111 0.171,-0.246 0.171,-0.3 0,-0.053 0.431,-0.825 0.958,-1.715 0.954,-1.61 2.192,-4.029 2.875,-5.617 0.197,-0.459 0.455,-1.059 0.575,-1.334 0.119,-0.275 0.345,-0.875 0.502,-1.333 0.158,-0.458 0.345,-0.948 0.417,-1.089 0.072,-0.14 0.187,-0.513 0.256,-0.828 0.069,-0.314 0.192,-0.687 0.272,-0.828 0.472,-0.827 1.782,-6.817 2.132,-9.755 0.536,-4.481 0.574,-5.316 0.224,-4.879"
       stroke="none"
       fill="#2db0af"
       fill-rule="evenodd"
       style="fill:#213547;fill-opacity:1" />
    <path
       id="path1"
       d="m 79.397,124.943 c 0.063,0.535 0.184,1.199 0.269,1.474 0.086,0.275 0.316,1.25 0.512,2.166 0.195,0.917 0.421,1.892 0.5,2.167 0.079,0.275 0.256,0.912 0.391,1.417 0.233,0.864 0.66,2.363 1.212,4.25 0.133,0.458 0.303,0.948 0.377,1.088 0.073,0.141 0.19,0.514 0.259,0.828 0.069,0.315 0.184,0.688 0.257,0.828 0.072,0.141 0.484,1.231 0.915,2.422 2.512,6.936 8.076,17.649 10.659,20.522 0.093,0.103 0.281,0.355 0.419,0.56 0.374,0.559 1.383,1.906 1.498,2.002 0.056,0.045 0.284,0.344 0.507,0.664 0.224,0.32 0.52,0.701 0.659,0.847 0.139,0.146 0.59,0.672 1.002,1.169 1.78,2.143 5.396,5.84 7.323,7.486 0.59,0.505 1.196,1.029 1.347,1.167 1.66,1.518 9.302,7 9.758,7 0.061,0 0.833,0.431 1.716,0.958 1.999,1.193 7.743,4.039 8.16,4.043 0.062,0.001 0.301,0.098 0.53,0.216 0.229,0.119 0.904,0.396 1.5,0.616 0.595,0.221 1.271,0.498 1.5,0.616 0.229,0.119 0.511,0.216 0.627,0.217 0.116,0 0.341,0.071 0.5,0.158 0.293,0.159 2.737,0.987 3.956,1.34 0.367,0.107 1.042,0.305 1.5,0.442 5.423,1.616 11.812,2.838 18.145,3.472 1.363,0.136 2.713,0.289 3,0.34 2.244,0.397 18.025,0.343 21.772,-0.075 0.87,-0.097 2.408,-0.255 3.416,-0.352 4.304,-0.412 8.633,-1.024 13.4,-1.895 2.081,-0.38 1.871,-0.487 -0.733,-0.374 -2.092,0.091 -11.378,-0.253 -12.667,-0.469 -0.275,-0.047 -1.55,-0.196 -2.833,-0.332 -6.228,-0.659 -12.77,-1.887 -19.5,-3.657 -0.917,-0.241 -1.854,-0.506 -2.083,-0.589 -0.229,-0.083 -0.979,-0.315 -1.667,-0.516 -1.8,-0.526 -5.275,-1.695 -5.917,-1.99 -0.183,-0.085 -1.27,-0.524 -2.416,-0.976 -1.146,-0.453 -2.796,-1.156 -3.667,-1.564 -0.871,-0.408 -1.658,-0.773 -1.75,-0.811 -1.375,-0.579 -2.906,-1.634 -1.648,-1.137 0.265,0.105 0.838,0.294 1.273,0.421 0.435,0.127 1.185,0.349 1.667,0.492 2.114,0.629 5.537,1.494 7.958,2.01 5.614,1.198 11.014,2.001 16.083,2.393 1.192,0.092 3.142,0.244 4.334,0.336 2.778,0.215 12.348,0.217 15.166,0.003 5.533,-0.42 6.805,-0.529 8.75,-0.749 3.187,-0.36 7.235,-0.976 9.75,-1.483 2.673,-0.539 3.174,-0.657 3.309,-0.778 0.588,-0.525 -8.841,-8.831 -13.559,-11.945 -0.87,-0.574 -1.73,-1.158 -1.909,-1.296 -0.179,-0.138 -0.422,-0.252 -0.541,-0.252 -0.119,0 -0.216,-0.066 -0.216,-0.147 0,-0.081 -0.132,-0.189 -0.292,-0.24 -0.285,-0.09 -1.21,-0.614 -1.375,-0.779 -0.212,-0.211 -5.686,-2.997 -7.336,-3.732 -0.594,-0.266 -1.555,-0.697 -2.134,-0.959 -0.579,-0.262 -1.09,-0.476 -1.134,-0.476 -0.045,0 -0.396,-0.14 -0.78,-0.312 -0.385,-0.171 -1.374,-0.554 -2.199,-0.85 -0.825,-0.297 -1.65,-0.605 -1.834,-0.686 -0.476,-0.209 -6.096,-2.048 -7.583,-2.48 -0.687,-0.2 -1.437,-0.431 -1.667,-0.514 -0.229,-0.082 -0.716,-0.223 -1.083,-0.313 -0.367,-0.09 -1.079,-0.273 -1.583,-0.408 -4.137,-1.104 -5.399,-1.427 -7.917,-2.023 -0.642,-0.152 -1.579,-0.375 -2.083,-0.494 -0.505,-0.12 -1.479,-0.346 -2.167,-0.503 -0.687,-0.158 -1.7,-0.392 -2.25,-0.52 -0.55,-0.129 -1.525,-0.346 -2.167,-0.483 -0.641,-0.137 -1.654,-0.362 -2.25,-0.5 -0.596,-0.138 -1.608,-0.363 -2.25,-0.5 -0.641,-0.137 -1.654,-0.362 -2.25,-0.5 -0.596,-0.139 -1.571,-0.36 -2.166,-0.492 -0.596,-0.132 -1.534,-0.348 -2.084,-0.48 -0.55,-0.132 -1.562,-0.368 -2.25,-0.525 -1.365,-0.312 -2.62,-0.614 -4.166,-1 -0.55,-0.138 -1.432,-0.356 -1.959,-0.485 -1.385,-0.339 -4.64,-1.205 -5.708,-1.518 -0.504,-0.147 -1.292,-0.37 -1.75,-0.494 -0.458,-0.124 -1.246,-0.352 -1.75,-0.506 -0.504,-0.154 -1.217,-0.367 -1.583,-0.473 -0.367,-0.106 -0.742,-0.24 -0.834,-0.298 -0.091,-0.057 -0.429,-0.159 -0.75,-0.226 -0.32,-0.067 -0.658,-0.18 -0.75,-0.25 -0.091,-0.071 -0.429,-0.183 -0.75,-0.251 -0.32,-0.067 -0.658,-0.167 -0.75,-0.221 -0.166,-0.1 -1.948,-0.743 -3.833,-1.383 -0.55,-0.187 -1.225,-0.439 -1.5,-0.559 -0.275,-0.121 -1.7,-0.729 -3.167,-1.353 -5.258,-2.236 -10.222,-4.889 -14.583,-7.793 -1.494,-0.995 -5.746,-4.132 -6,-4.427 -0.046,-0.053 -0.571,-0.507 -1.167,-1.009 -1.293,-1.089 -2.516,-2.211 -3.974,-3.645 l -1.075,-1.057 0.113,0.974"
       stroke="none"
       fill="#eca20c"
       fill-rule="evenodd"
       style="fill:#213547;fill-opacity:1" />
    <path
       id="path2"
       d="m 346.917,84.964 c -8.648,2.756 -16.428,5.707 -22.559,8.556 -0.765,0.356 -1.42,0.647 -1.455,0.647 -0.796,0 -14.537,7.379 -18.556,9.964 -3.915,2.518 -8.562,5.707 -8.739,5.997 -0.041,0.067 0.029,1.06 0.155,2.205 0.125,1.146 0.317,2.894 0.425,3.884 l 0.197,1.801 0.669,-0.634 c 0.368,-0.349 0.825,-0.79 1.016,-0.98 0.494,-0.492 3.697,-3.348 4.754,-4.237 1.221,-1.028 1.445,-1.174 1.597,-1.036 0.073,0.065 0.083,0.033 0.023,-0.072 -0.064,-0.113 0.484,-0.657 1.349,-1.338 2.032,-1.599 2.475,-1.896 2.628,-1.758 0.073,0.066 0.085,0.036 0.026,-0.066 -0.128,-0.224 1.78,-1.609 1.974,-1.433 0.073,0.065 0.083,0.033 0.023,-0.072 -0.105,-0.183 0.327,-0.477 0.61,-0.414 0.076,0.016 0.099,-0.032 0.052,-0.107 -0.109,-0.177 3.693,-2.806 3.95,-2.732 0.107,0.03 0.139,0 0.071,-0.068 -0.166,-0.166 3.053,-2.247 3.279,-2.119 0.097,0.056 0.121,0.04 0.053,-0.036 -0.23,-0.253 7.76,-5.173 8.08,-4.975 0.098,0.061 0.135,0.038 0.08,-0.05 -0.054,-0.088 0.178,-0.304 0.516,-0.48 0.338,-0.177 1.079,-0.6 1.647,-0.942 1.432,-0.861 2.658,-1.468 2.781,-1.378 0.057,0.042 0.064,0.023 0.015,-0.04 -0.048,-0.064 0.158,-0.238 0.459,-0.385 0.3,-0.148 1.503,-0.776 2.671,-1.394 1.169,-0.618 2.126,-1.064 2.128,-0.99 10e-4,0.074 0.06,0.043 0.131,-0.068 0.118,-0.186 4.783,-2.567 7.246,-3.699 2.209,-1.015 3.863,-1.829 3.704,-1.823 -0.092,0.004 -0.542,0.126 -1,0.272 m -161.66,48.287 c 1.57,6.279 2.886,11.441 2.924,11.469 0.038,0.029 1.044,0.791 2.236,1.695 1.191,0.903 2.204,1.685 2.25,1.738 0.046,0.053 0.458,0.395 0.916,0.76 0.459,0.365 0.917,0.74 1.019,0.834 0.102,0.093 0.665,0.582 1.25,1.086 2.018,1.737 6.067,5.746 8.418,8.334 3.327,3.661 8.226,10.294 10.736,14.534 0.31,0.524 0.581,0.934 0.603,0.912 0.052,-0.052 -0.921,-3.243 -1.677,-5.499 -0.333,-0.992 -0.554,-1.885 -0.492,-1.984 0.066,-0.109 0.034,-0.134 -0.081,-0.063 -0.111,0.069 -0.192,0.018 -0.192,-0.121 0,-0.133 -0.112,-0.456 -0.249,-0.719 -0.137,-0.262 -0.25,-0.593 -0.25,-0.735 -0.001,-0.142 -0.065,-0.33 -0.143,-0.417 -0.192,-0.215 -1.041,-2.575 -0.926,-2.575 0.05,0 -0.026,-0.118 -0.17,-0.262 -0.234,-0.234 -0.339,-0.586 -0.282,-0.946 0.011,-0.069 -0.05,-0.125 -0.136,-0.125 -0.085,0 -0.208,-0.168 -0.273,-0.372 -0.484,-1.525 -4.499,-9.436 -5.977,-11.778 -0.242,-0.383 -0.388,-0.78 -0.325,-0.882 0.07,-0.113 0.04,-0.14 -0.077,-0.068 -0.175,0.108 -0.27,-0.099 -0.208,-0.454 0.013,-0.076 -0.053,-0.09 -0.147,-0.032 -0.094,0.058 -0.171,0.034 -0.171,-0.054 0,-0.665 -6.762,-10.077 -9.703,-13.506 -0.343,-0.4 -0.577,-0.806 -0.518,-0.9 0.058,-0.095 0.031,-0.126 -0.06,-0.07 -0.091,0.057 -0.532,-0.325 -0.979,-0.849 -1.442,-1.689 -2.419,-2.723 -5.769,-6.106 -1.808,-1.826 -3.242,-3.394 -3.187,-3.484 0.056,-0.09 0.024,-0.116 -0.07,-0.058 -0.095,0.059 -0.373,-0.08 -0.618,-0.307 -0.245,-0.228 -0.465,-0.414 -0.487,-0.414 -0.023,0 1.244,5.138 2.815,11.418"
       stroke="none"
       fill="#a50454"
       fill-rule="evenodd"
       style="fill:#213547;fill-opacity:1" />
    <path
       id="path3"
       d="m 109.833,73.06 c 0,0.29 4.355,17.361 4.453,17.459 0.401,0.397 11.233,6.941 19.964,12.06 12.338,7.234 24.739,14.782 24.449,14.881 -0.2,0.069 -9.101,-2.18 -12.699,-3.209 -3.466,-0.99 -10.783,-3.399 -14.083,-4.635 -2.24,-0.839 -7.069,-2.789 -8.334,-3.365 -0.275,-0.125 -0.838,-0.374 -1.25,-0.552 -0.939,-0.407 -2.449,-1.09 -3.75,-1.697 -1.242,-0.58 -1.184,-0.724 -0.636,1.575 l 0.465,1.948 1.419,1.047 c 7.173,5.296 14.307,9.077 32.086,17.008 17.808,7.944 24.827,11.577 33.183,17.175 1.759,1.178 3.047,1.944 2.995,1.781 -0.733,-2.328 -5.632,-22.643 -5.432,-22.528 0.281,0.161 6.95,6.879 8.265,8.325 2.537,2.792 5.693,6.657 7.835,9.596 0.696,0.956 1.302,1.738 1.346,1.738 0.119,0 -3.433,-4.875 -3.764,-5.167 -0.052,-0.046 -0.729,-0.871 -1.503,-1.833 -0.775,-0.963 -1.45,-1.788 -1.501,-1.834 -0.05,-0.046 -0.346,-0.383 -0.657,-0.75 -3.161,-3.726 -9.315,-9.837 -13.765,-13.666 -0.532,-0.459 -1.089,-0.946 -1.237,-1.084 -0.148,-0.137 -0.64,-0.55 -1.094,-0.916 -0.453,-0.367 -0.948,-0.779 -1.099,-0.917 -0.151,-0.138 -0.518,-0.437 -0.816,-0.667 -0.298,-0.229 -0.627,-0.493 -0.732,-0.586 -0.105,-0.094 -0.566,-0.469 -1.024,-0.834 -0.459,-0.365 -0.871,-0.704 -0.917,-0.754 -0.046,-0.051 -0.346,-0.272 -0.667,-0.492 -0.321,-0.221 -0.62,-0.448 -0.666,-0.505 -0.046,-0.057 -1.059,-0.828 -2.25,-1.713 -1.192,-0.885 -2.242,-1.667 -2.334,-1.737 -0.091,-0.071 -0.447,-0.316 -0.79,-0.545 -0.343,-0.229 -0.625,-0.473 -0.625,-0.542 -0.001,-0.069 -0.083,-0.125 -0.183,-0.125 -0.101,0 -0.354,-0.131 -0.564,-0.292 -0.211,-0.16 -0.522,-0.387 -0.693,-0.505 -0.878,-0.602 -3.179,-2.247 -3.413,-2.439 -0.147,-0.121 -0.337,-0.249 -0.421,-0.284 -0.152,-0.063 -7.238,-4.729 -8.096,-5.33 -0.248,-0.174 -0.513,-0.317 -0.589,-0.317 -0.076,0 -0.398,-0.222 -0.715,-0.493 -0.318,-0.271 -0.671,-0.496 -0.786,-0.5 C 149.094,96.836 149,96.758 149,96.667 c 0,-0.092 -0.094,-0.167 -0.208,-0.168 -0.19,-10e-4 -3.268,-1.912 -3.743,-2.324 -0.111,-0.096 -0.241,-0.175 -0.29,-0.175 -0.152,0 -3.831,-2.216 -4.063,-2.447 -0.121,-0.121 -0.327,-0.22 -0.458,-0.22 -0.131,0 -0.238,-0.07 -0.238,-0.155 0,-0.086 -0.165,-0.208 -0.368,-0.272 -0.202,-0.064 -0.783,-0.399 -1.291,-0.745 -0.509,-0.345 -1.224,-0.789 -1.591,-0.986 -0.808,-0.435 -1.12,-0.622 -2.027,-1.217 -0.385,-0.252 -0.774,-0.458 -0.864,-0.458 -0.091,0 -0.19,-0.06 -0.22,-0.133 -0.053,-0.128 -1.168,-0.797 -2.222,-1.334 -0.275,-0.14 -0.814,-0.467 -1.197,-0.727 -0.383,-0.26 -0.777,-0.473 -0.875,-0.473 -0.098,0 -0.178,-0.067 -0.178,-0.148 0,-0.082 -0.191,-0.197 -0.424,-0.255 -0.256,-0.064 -0.378,-0.181 -0.307,-0.294 0.063,-0.103 0.041,-0.142 -0.049,-0.086 -0.091,0.056 -0.421,-0.066 -0.734,-0.271 -0.313,-0.205 -0.851,-0.519 -1.195,-0.697 -0.343,-0.179 -0.625,-0.382 -0.625,-0.453 0,-0.071 -0.077,-0.129 -0.171,-0.129 -0.094,0 -0.863,-0.422 -1.708,-0.937 -0.846,-0.515 -2.925,-1.778 -4.621,-2.806 -4.135,-2.506 -7.221,-4.414 -8.329,-5.15 -0.831,-0.552 -1.171,-0.711 -1.171,-0.547 m 238.29,11.389 c -0.162,0.042 -0.243,0.158 -0.181,0.259 0.073,0.118 0.012,0.143 -0.173,0.072 -0.17,-0.065 -0.245,-0.043 -0.184,0.055 0.056,0.091 0.009,0.165 -0.103,0.165 -0.112,0 -0.164,0.04 -0.115,0.089 0.049,0.049 0.455,-0.099 0.902,-0.329 0.731,-0.375 0.662,-0.522 -0.146,-0.311 m -1.549,0.959 c -0.313,0.234 -0.311,0.239 0.054,0.147 0.207,-0.052 0.418,-0.161 0.468,-0.242 0.141,-0.228 -0.164,-0.172 -0.522,0.095 m -3.741,1.759 c -0.504,0.266 -0.841,0.484 -0.75,0.484 0.092,0 0.579,-0.218 1.084,-0.484 0.504,-0.267 0.841,-0.485 0.75,-0.485 -0.092,0 -0.58,0.218 -1.084,0.485 m -13.377,6.903 c -0.915,0.552 -0.993,0.713 -0.123,0.251 0.934,-0.495 0.903,-0.474 0.819,-0.558 -0.039,-0.039 -0.352,0.099 -0.696,0.307 m -9.206,5.446 c -1.205,0.767 -2.082,1.425 -1.417,1.064 0.578,-0.315 2.834,-1.784 2.834,-1.846 0,-0.116 -0.052,-0.087 -1.417,0.782 m -7.498,4.996 c -1.627,1.165 -1.77,1.389 -0.205,0.323 1.099,-0.749 1.637,-1.189 1.421,-1.162 -0.028,0.004 -0.575,0.381 -1.216,0.839 m -3.877,2.832 c -0.481,0.369 -0.875,0.708 -0.875,0.752 0,0.045 0.412,-0.23 0.917,-0.611 0.796,-0.601 1.038,-0.826 0.875,-0.816 -0.023,0.002 -0.436,0.305 -0.917,0.675 m -11.125,1.087 -0.5,0.43 0.542,-0.359 c 0.298,-0.197 0.541,-0.39 0.541,-0.43 0,-0.125 -0.07,-0.081 -0.583,0.359 m 8.521,0.909 c -1.311,1.037 -2.023,1.623 -3.836,3.16 -0.809,0.686 -3.992,3.532 -4.365,3.904 -0.191,0.19 -0.648,0.631 -1.016,0.98 l -0.669,0.634 -0.197,-1.801 c -0.108,-0.99 -0.3,-2.738 -0.427,-3.884 -0.21,-1.903 -0.206,-2.111 0.046,-2.405 1.156,-1.349 -7.055,5.341 -10.753,8.762 -14.361,13.282 -23.265,32.147 -27.641,58.56 -0.228,1.375 -0.489,2.906 -0.58,3.403 -0.354,1.926 -0.103,1.453 1.32,-2.486 2.843,-7.873 5.48,-14.229 8.968,-21.625 1.587,-3.364 1.824,-3.713 0.955,-1.402 -3.715,9.871 -7.092,27.283 -9.007,46.443 -0.73,7.306 -3.193,16.636 -5.997,22.713 -0.223,0.484 -0.405,0.915 -0.405,0.958 0,0.08 -1.918,3.953 -2.363,4.773 -0.255,0.47 -0.232,0.824 0.43,6.473 0.134,1.146 0.327,2.796 0.429,3.667 0.102,0.87 0.206,1.655 0.231,1.744 0.055,0.191 2.666,-3.074 4.554,-5.695 0.74,-1.027 1.379,-1.833 1.421,-1.792 0.041,0.042 0.075,-0.026 0.075,-0.15 0,-0.124 0.305,-0.667 0.677,-1.208 0.834,-1.212 2.879,-4.392 2.879,-4.477 0,-0.17 1.716,-3.013 1.848,-3.061 0.084,-0.031 0.152,-0.135 0.152,-0.232 0,-0.097 0.806,-1.8 1.792,-3.784 0.985,-1.985 1.896,-3.868 2.023,-4.185 0.249,-0.62 0.776,-1.867 1.018,-2.41 0.721,-1.618 1.864,-4.623 2.504,-6.584 0.194,-0.596 0.418,-1.233 0.496,-1.416 0.185,-0.434 1.226,-3.826 1.649,-5.373 0.181,-0.663 0.37,-1.273 0.421,-1.356 0.051,-0.082 0.135,-0.439 0.186,-0.794 0.052,-0.354 0.137,-0.757 0.19,-0.894 0.092,-0.242 0.22,-0.762 0.795,-3.25 0.994,-4.301 1.661,-8.173 2.409,-14 0.284,-2.215 0.338,-2.742 0.516,-5.083 0.094,-1.238 0.245,-3.125 0.336,-4.193 0.271,-3.191 0.114,-3.951 -0.339,-1.641 -0.099,0.505 -0.247,1.067 -0.329,1.25 -0.081,0.184 -0.199,0.668 -0.261,1.077 -0.063,0.409 -0.17,0.859 -0.238,1 -0.069,0.141 -0.291,0.969 -0.494,1.84 -0.203,0.871 -0.429,1.733 -0.503,1.917 -0.074,0.183 -0.257,0.82 -0.408,1.416 -0.437,1.726 -0.934,3.393 -1.105,3.706 -0.087,0.16 -0.158,0.391 -0.158,0.514 0,0.23 -0.587,2.266 -0.825,2.864 -0.073,0.183 -0.304,0.896 -0.513,1.583 -0.208,0.688 -0.452,1.344 -0.541,1.458 -0.089,0.115 -0.122,0.209 -0.074,0.209 0.118,0 -1.329,4.437 -1.876,5.75 -0.076,0.183 -0.307,0.82 -0.514,1.416 -0.206,0.596 -0.439,1.155 -0.516,1.242 -0.078,0.087 -0.141,0.275 -0.142,0.417 -0.001,0.142 -0.113,0.473 -0.25,0.735 -0.137,0.263 -0.249,0.563 -0.25,0.667 -0.001,0.104 -0.098,0.377 -0.216,0.606 -0.119,0.229 -0.393,0.904 -0.61,1.5 -0.217,0.596 -0.444,1.158 -0.505,1.25 -0.061,0.092 -0.244,0.527 -0.407,0.968 -0.509,1.379 -0.478,1.038 0.325,-3.468 0.468,-2.624 1.242,-8.102 2.001,-14.167 1.338,-10.679 1.626,-12.729 2.482,-17.666 0.45,-2.601 0.624,-3.503 0.719,-3.75 0.053,-0.138 0.123,-0.438 0.156,-0.667 0.109,-0.773 0.748,-3.581 0.89,-3.917 0.078,-0.183 0.19,-0.633 0.249,-1 0.059,-0.366 0.222,-1.041 0.363,-1.5 0.141,-0.458 0.316,-1.058 0.389,-1.333 0.812,-3.048 2.666,-8.34 3.708,-10.583 0.235,-0.505 0.589,-1.292 0.788,-1.75 0.851,-1.958 2.849,-5.832 3.826,-7.417 0.085,-0.138 0.499,-0.812 0.921,-1.5 0.422,-0.687 0.858,-1.398 0.97,-1.58 0.111,-0.181 0.693,-1.044 1.292,-1.916 0.6,-0.873 1.21,-1.775 1.356,-2.004 0.147,-0.229 0.463,-0.642 0.705,-0.917 0.241,-0.275 0.643,-0.797 0.894,-1.161 0.25,-0.363 0.567,-0.782 0.705,-0.929 0.285,-0.307 0.636,-0.728 1.584,-1.902 2.658,-3.291 8.701,-9.311 12.248,-12.2 0.554,-0.451 1.332,-1.113 1.733,-1.474 0.102,-0.092 0.879,-0.723 1.727,-1.403 1.364,-1.093 1.655,-1.354 1.5,-1.345 -0.023,0.002 -0.707,0.529 -1.521,1.171 m -105.954,32.743 c 0.096,0.184 0.331,0.521 0.523,0.75 0.238,0.285 0.294,0.311 0.176,0.084 -0.095,-0.184 -0.33,-0.521 -0.522,-0.75 -0.239,-0.285 -0.295,-0.311 -0.177,-0.084 m 1.26,1.875 c 0.257,0.39 0.499,0.709 0.538,0.709 0.12,0 -0.518,-1.015 -0.768,-1.221 -0.131,-0.108 -0.027,0.123 0.23,0.512 m 1.026,1.542 c 0.569,0.859 0.684,0.86 0.194,0.001 -0.209,-0.366 -0.438,-0.666 -0.508,-0.666 -0.07,-0.001 0.071,0.298 0.314,0.665 m 3.48,5.833 c 0.233,0.459 0.46,0.834 0.506,0.834 0.046,0 -0.107,-0.375 -0.339,-0.834 -0.232,-0.458 -0.46,-0.833 -0.506,-0.833 -0.045,0 0.107,0.375 0.339,0.833 m -8.166,1.5 c 0.451,0.459 0.858,0.834 0.904,0.834 0.046,0 -0.286,-0.375 -0.738,-0.834 -0.451,-0.458 -0.858,-0.833 -0.904,-0.833 -0.046,0 0.286,0.375 0.738,0.833 m 9.75,1.459 c 0,0.079 0.108,0.29 0.241,0.468 0.234,0.312 0.239,0.31 0.147,-0.054 -0.095,-0.376 -0.388,-0.689 -0.388,-0.414 m -4.841,3.416 c 0.691,0.736 0.841,0.869 0.841,0.743 0,-0.026 -0.357,-0.383 -0.792,-0.791 l -0.792,-0.743 0.743,0.791 m 9.432,6.834 c 0.062,0.206 0.181,0.448 0.265,0.538 0.084,0.089 0.068,-0.08 -0.035,-0.375 -0.211,-0.606 -0.406,-0.744 -0.23,-0.163 m 0.5,1.333 c 0.062,0.206 0.181,0.448 0.265,0.538 0.084,0.089 0.068,-0.079 -0.035,-0.375 -0.211,-0.606 -0.406,-0.743 -0.23,-0.163 m 0.504,1.292 c 0.062,0.229 0.181,0.529 0.266,0.666 0.107,0.174 0.121,0.123 0.043,-0.166 -0.061,-0.229 -0.181,-0.53 -0.266,-0.667 -0.107,-0.174 -0.12,-0.123 -0.043,0.167 m 0.569,1.659 c 0.087,0.304 0.205,0.599 0.261,0.655 0.156,0.156 -0.115,-0.876 -0.277,-1.053 -0.079,-0.086 -0.071,0.093 0.016,0.398 M 215.19,173 c 0,0.137 0.065,0.4 0.143,0.583 0.091,0.21 0.144,0.241 0.144,0.084 0,-0.138 -0.065,-0.4 -0.144,-0.584 -0.09,-0.21 -0.143,-0.241 -0.143,-0.083"
       stroke="none"
       fill="#ac045c"
       fill-rule="evenodd"
       style="fill:#213547;fill-opacity:1" />
    <path
       id="path4"
       d="m 58.151,8.5 c -0.126,0.407 -0.502,6.857 -0.671,11.522 -0.477,13.172 0.674,24.925 3.409,34.811 0.139,0.504 0.339,1.254 0.443,1.667 0.105,0.413 0.251,0.865 0.325,1.005 0.074,0.141 0.19,0.516 0.258,0.834 0.068,0.318 0.181,0.653 0.252,0.744 0.07,0.092 0.184,0.427 0.252,0.745 0.068,0.318 0.182,0.693 0.254,0.833 0.072,0.141 0.259,0.631 0.417,1.089 0.936,2.731 3.858,8.988 5.342,11.438 0.312,0.517 0.568,1.023 0.568,1.125 0,0.103 0.075,0.187 0.167,0.187 0.091,0 0.166,0.07 0.166,0.155 0,0.147 1.644,2.837 1.841,3.012 0.051,0.045 0.275,0.383 0.496,0.75 0.222,0.366 0.465,0.741 0.541,0.833 0.076,0.092 0.506,0.692 0.956,1.333 0.449,0.642 0.88,1.242 0.957,1.334 0.076,0.091 0.652,0.841 1.279,1.666 0.626,0.825 1.186,1.538 1.243,1.584 0.057,0.045 0.404,0.458 0.77,0.916 0.853,1.069 1.05,1.297 3.243,3.754 1.783,1.998 7.925,8.141 10,10.001 0.867,0.776 1.73,1.564 1.917,1.75 0.282,0.279 2.466,2.194 4.654,4.079 0.266,0.229 0.566,0.495 0.668,0.591 0.151,0.143 4.908,4.1 8.081,6.723 0.402,0.331 0.814,0.678 0.917,0.771 0.103,0.093 0.712,0.579 1.354,1.079 0.642,0.501 1.204,0.95 1.25,0.998 0.046,0.048 0.815,0.676 1.708,1.395 1.394,1.122 1.969,1.656 1.5,1.392 -0.068,-0.039 -1.887,-0.941 -4.041,-2.004 -2.154,-1.064 -4.742,-2.39 -5.75,-2.948 -1.009,-0.557 -2.04,-1.101 -2.292,-1.208 -0.252,-0.108 -0.458,-0.254 -0.458,-0.326 0,-0.071 -0.075,-0.13 -0.167,-0.13 -0.469,0 -11.604,-7.087 -12.756,-8.118 -0.183,-0.164 -0.602,-0.486 -0.931,-0.715 C 85.356,102.5 81.538,99.51 80.991,99 80.844,98.862 80.505,98.568 80.237,98.345 75.888,94.728 70.772,89.612 67.155,85.263 66.932,84.995 66.637,84.656 66.5,84.51 66.362,84.363 65.838,83.72 65.335,83.08 64.831,82.44 64.249,81.729 64.041,81.5 63.833,81.271 63.623,80.959 63.575,80.807 63.409,80.284 62.946,80.268 63.086,80.79 c 0.068,0.253 0.219,0.872 0.335,1.377 0.303,1.316 1.079,4.038 1.236,4.338 0.074,0.141 0.19,0.516 0.258,0.834 0.068,0.318 0.181,0.653 0.252,0.744 0.07,0.092 0.183,0.43 0.25,0.75 0.067,0.321 0.176,0.659 0.242,0.75 0.066,0.092 0.294,0.654 0.508,1.25 0.213,0.596 0.437,1.159 0.498,1.25 0.061,0.092 0.247,0.542 0.413,1 0.479,1.319 2.399,5.181 3.456,6.951 0.531,0.89 0.966,1.662 0.966,1.715 0,0.054 0.078,0.189 0.173,0.3 0.095,0.11 0.561,0.801 1.034,1.534 0.473,0.734 0.939,1.418 1.035,1.522 0.096,0.103 0.287,0.355 0.425,0.56 0.343,0.513 1.377,1.9 1.491,2.002 0.051,0.045 0.541,0.646 1.089,1.333 1.95,2.448 5.769,6.299 8.42,8.489 0.688,0.568 1.4,1.159 1.583,1.313 2.127,1.794 9.59,6.865 10.103,6.865 0.081,0 0.147,0.075 0.147,0.166 0,0.092 0.084,0.167 0.187,0.167 0.102,0 0.608,0.253 1.125,0.562 2.298,1.375 6.694,3.596 9.771,4.937 0.367,0.159 1.004,0.445 1.417,0.635 0.999,0.461 4.539,1.91 5.583,2.287 0.459,0.165 0.905,0.363 0.992,0.44 0.087,0.076 0.263,0.139 0.391,0.139 0.129,0 0.47,0.109 0.759,0.241 1.208,0.555 8.242,2.959 12.692,4.338 1.1,0.34 2.187,0.681 2.416,0.758 0.23,0.076 0.98,0.302 1.667,0.501 0.688,0.2 1.571,0.468 1.964,0.596 0.393,0.128 0.849,0.233 1.014,0.233 0.165,0 0.356,0.056 0.425,0.125 0.068,0.068 0.475,0.212 0.902,0.32 1.735,0.435 2.294,0.59 2.612,0.721 0.183,0.076 0.67,0.225 1.083,0.332 0.412,0.106 1.143,0.301 1.624,0.434 0.481,0.132 1.287,0.352 1.792,0.488 0.504,0.135 1.33,0.359 1.834,0.496 0.504,0.138 1.329,0.363 1.833,0.5 0.504,0.138 1.33,0.361 1.834,0.497 0.505,0.136 1.33,0.361 1.834,0.5 1.166,0.323 2.498,0.686 3.666,1 0.505,0.136 1.33,0.361 1.834,0.5 0.504,0.139 1.309,0.361 1.791,0.492 1.325,0.361 7.673,2.175 8.791,2.511 0.413,0.124 1.05,0.31 1.417,0.414 0.367,0.103 0.854,0.253 1.083,0.333 0.23,0.08 0.98,0.31 1.667,0.511 1.897,0.555 9.605,3.131 10.417,3.481 0.183,0.079 1.008,0.385 1.833,0.681 0.825,0.296 1.725,0.636 2,0.757 0.275,0.121 0.967,0.412 1.538,0.647 0.57,0.235 1.447,0.615 1.947,0.843 0.501,0.229 0.947,0.417 0.992,0.417 0.392,0 6.011,2.814 8.296,4.155 0.792,0.465 1.523,0.845 1.625,0.845 0.102,0 0.185,0.075 0.185,0.166 0,0.092 0.078,0.167 0.174,0.167 0.095,0 0.376,0.141 0.625,0.313 0.248,0.172 1.014,0.673 1.701,1.115 1.618,1.039 4.149,2.895 5.416,3.972 1.905,1.62 2.343,2.026 4.153,3.85 5.172,5.213 -5.324,-9.378 -11.504,-15.994 -11.261,-12.053 -22.987,-19.411 -50.481,-31.676 -17.779,-7.931 -24.913,-11.712 -32.086,-17.008 l -1.419,-1.047 -0.465,-1.948 c -0.548,-2.299 -0.606,-2.155 0.636,-1.575 1.301,0.607 2.811,1.29 3.75,1.697 0.412,0.178 0.975,0.427 1.25,0.552 1.265,0.576 6.094,2.526 8.334,3.365 3.3,1.236 10.617,3.645 14.083,4.635 3.598,1.029 12.499,3.278 12.699,3.209 0.29,-0.099 -12.111,-7.647 -24.449,-14.881 -8.731,-5.119 -19.563,-11.663 -19.964,-12.06 -0.167,-0.166 -4.479,-17.381 -4.379,-17.482 0.042,-0.042 0.436,0.154 0.876,0.435 0.44,0.28 1.55,0.972 2.467,1.538 0.917,0.565 2.154,1.344 2.75,1.731 1.352,0.879 1.905,1.177 1.766,0.951 -0.06,-0.096 -0.837,-0.618 -1.729,-1.161 -1.449,-0.883 -4.719,-2.924 -5.37,-3.353 -3.449,-2.27 -8.964,-5.958 -9.105,-6.088 -0.103,-0.095 -0.328,-0.268 -0.5,-0.383 -0.172,-0.116 -0.837,-0.584 -1.479,-1.04 -0.641,-0.457 -1.307,-0.925 -1.478,-1.04 -0.172,-0.116 -0.397,-0.288 -0.5,-0.382 -0.104,-0.095 -0.451,-0.356 -0.772,-0.579 -0.692,-0.483 -0.747,-0.525 -1.5,-1.165 -0.32,-0.273 -0.634,-0.497 -0.696,-0.498 -0.062,-0.002 -0.212,-0.098 -0.333,-0.213 -0.122,-0.116 -0.745,-0.622 -1.386,-1.125 -0.642,-0.503 -1.317,-1.04 -1.5,-1.192 C 91.234,59.32 90.296,58.542 89.333,57.744 88.371,56.946 87.546,56.245 87.5,56.187 87.454,56.129 86.929,55.671 86.333,55.17 83.3,52.619 76.075,45.055 73.755,42 73.302,41.404 72.888,40.879 72.833,40.833 72.779,40.787 72.553,40.487 72.331,40.167 72.109,39.846 71.85,39.492 71.755,39.381 71.373,38.93 71.189,38.669 69.872,36.7 69.117,35.573 68.5,34.579 68.5,34.492 c 0,-0.087 -0.075,-0.159 -0.167,-0.159 -0.091,0 -0.166,-0.107 -0.166,-0.238 0,-0.131 -0.094,-0.34 -0.209,-0.465 C 67.742,33.395 67.581,33.131 66.875,31.846 66.644,31.427 66.399,31.008 66.331,30.917 66.179,30.714 64.39,27.162 63.687,25.667 61.71,21.462 59.083,13.278 58.578,9.75 58.472,9.01 58.221,8.275 58.151,8.5 m 60.932,70.082 c 0.373,0.309 1.429,0.88 1.167,0.63 -0.092,-0.087 -0.467,-0.327 -0.833,-0.533 -0.367,-0.206 -0.517,-0.25 -0.334,-0.097 m 3.084,1.813 c 0,0.126 2.702,1.772 2.909,1.771 0.096,0 -0.276,-0.27 -0.826,-0.599 -0.55,-0.33 -1.244,-0.748 -1.542,-0.93 -0.298,-0.182 -0.541,-0.291 -0.541,-0.242 m 3.667,2.228 c 0.002,0.135 1.01,0.755 1.093,0.672 0.027,-0.027 -0.208,-0.217 -0.522,-0.423 -0.315,-0.207 -0.571,-0.318 -0.571,-0.249 m 2.416,1.544 c 0.275,0.182 0.575,0.331 0.667,0.331 0.091,10e-4 -0.079,-0.149 -0.379,-0.332 -0.708,-0.431 -0.94,-0.431 -0.288,0.001 m 216.917,1.011 c -0.688,0.179 -1.663,0.44 -2.167,0.581 -0.504,0.141 -1.179,0.325 -1.5,0.409 -0.321,0.083 -1.146,0.308 -1.833,0.5 -0.688,0.192 -1.663,0.464 -2.167,0.604 -0.504,0.14 -1.104,0.318 -1.333,0.396 -0.229,0.077 -0.979,0.302 -1.667,0.5 -0.687,0.198 -1.812,0.533 -2.5,0.744 -0.687,0.211 -1.812,0.546 -2.5,0.745 -0.687,0.198 -1.365,0.422 -1.505,0.497 -0.141,0.075 -0.514,0.194 -0.828,0.263 -0.315,0.069 -0.688,0.184 -0.828,0.256 -0.141,0.073 -1.118,0.405 -2.172,0.739 -1.055,0.333 -2.067,0.67 -2.25,0.748 -0.184,0.077 -0.821,0.305 -1.417,0.507 -0.596,0.201 -1.233,0.426 -1.417,0.499 -0.183,0.073 -1.608,0.6 -3.166,1.17 -1.559,0.571 -3.059,1.137 -3.334,1.26 -0.275,0.122 -0.912,0.378 -1.416,0.568 -0.505,0.19 -1.067,0.415 -1.25,0.5 -0.184,0.085 -0.801,0.345 -1.371,0.579 -0.571,0.233 -1.448,0.612 -1.948,0.841 -0.5,0.229 -0.947,0.416 -0.992,0.416 -0.08,0 -1.482,0.618 -3.189,1.405 -1.572,0.725 -9.667,4.754 -10.667,5.31 -0.55,0.305 -1.45,0.804 -2,1.108 -1.915,1.06 -6.334,3.74 -6.389,3.875 -0.03,0.074 -0.146,0.135 -0.258,0.135 -0.111,0 -0.348,0.115 -0.527,0.254 -0.179,0.14 -0.926,0.643 -1.659,1.118 -0.734,0.476 -1.409,0.929 -1.5,1.007 -0.092,0.078 -1.027,0.748 -2.079,1.489 -1.051,0.742 -2.012,1.45 -2.136,1.574 -0.124,0.124 -0.277,0.225 -0.341,0.225 -0.063,0 -0.301,0.169 -0.529,0.376 -0.229,0.208 -0.94,0.786 -1.582,1.285 -1.183,0.921 -2.62,2.117 -4.583,3.814 -1.176,1.017 -7.059,6.857 -8.003,7.945 -0.319,0.368 -0.843,0.97 -1.164,1.337 -0.321,0.367 -0.883,1.036 -1.25,1.486 -0.367,0.451 -0.78,0.938 -0.919,1.082 -0.139,0.145 -0.435,0.524 -0.659,0.844 -0.223,0.32 -0.451,0.618 -0.507,0.664 -0.115,0.096 -1.124,1.443 -1.498,2.002 -0.138,0.205 -0.325,0.459 -0.417,0.565 -0.909,1.049 -4.865,7.299 -6.373,10.069 -1.482,2.723 -4.085,8.103 -4.732,9.781 -0.176,0.458 -0.39,0.983 -0.474,1.167 -1.477,3.219 -3.897,10.167 -5.835,16.75 -0.283,0.962 -0.583,1.975 -0.668,2.25 -0.136,0.443 -0.362,1.281 -1.282,4.75 -0.134,0.504 -0.344,1.329 -0.466,1.833 -0.123,0.504 -0.458,1.817 -0.744,2.917 -0.287,1.1 -0.635,2.487 -0.774,3.083 -0.247,1.058 -0.515,2.146 -0.985,4 -0.128,0.504 -0.346,1.404 -0.485,2 -0.139,0.596 -0.826,3.333 -1.525,6.083 -0.7,2.75 -1.371,5.413 -1.492,5.917 -0.121,0.504 -0.558,2.117 -0.972,3.583 -0.413,1.467 -0.908,3.23 -1.1,3.917 -0.192,0.688 -0.454,1.55 -0.581,1.917 -0.128,0.366 -0.396,1.229 -0.596,1.916 -0.406,1.395 -1.772,5.566 -1.992,6.084 -0.078,0.183 -0.443,1.158 -0.81,2.166 -0.368,1.009 -0.721,1.965 -0.784,2.125 -0.064,0.161 -0.046,0.292 0.038,0.292 0.175,0 4.049,-6.361 4.049,-6.647 0,-0.103 0.075,-0.186 0.166,-0.186 0.092,0 0.167,-0.084 0.167,-0.187 0,-0.102 0.255,-0.609 0.566,-1.125 1.509,-2.5 5.555,-10.357 7.286,-14.15 0.282,-0.617 0.76,-1.647 1.062,-2.288 0.302,-0.642 0.826,-1.805 1.165,-2.584 0.339,-0.779 0.806,-1.829 1.037,-2.333 0.231,-0.504 0.564,-1.292 0.74,-1.75 0.176,-0.458 0.389,-0.983 0.473,-1.167 0.084,-0.183 0.311,-0.708 0.504,-1.166 0.194,-0.459 0.421,-0.984 0.505,-1.167 0.084,-0.183 0.307,-0.746 0.495,-1.25 0.189,-0.504 0.415,-1.067 0.504,-1.25 0.089,-0.183 0.585,-1.458 1.103,-2.833 0.519,-1.375 1.047,-2.763 1.174,-3.084 l 0.232,-0.583 -0.083,0.75 c -0.046,0.412 -0.193,1.463 -0.326,2.333 -0.134,0.871 -0.325,2.146 -0.426,2.834 -0.101,0.687 -0.254,1.55 -0.342,1.916 -0.088,0.367 -0.317,1.529 -0.51,2.584 -0.193,1.054 -0.417,2.179 -0.497,2.5 -0.081,0.32 -0.31,1.333 -0.509,2.25 -1.264,5.803 -3.933,14.753 -5.569,18.666 -0.114,0.275 -0.343,0.875 -0.508,1.334 -0.165,0.458 -0.349,0.908 -0.409,1 -0.06,0.091 -0.245,0.541 -0.41,1 -0.165,0.458 -0.515,1.307 -0.778,1.886 -0.264,0.58 -0.479,1.083 -0.479,1.12 0,0.39 -3.835,7.978 -5.105,10.099 -0.309,0.516 -0.562,0.989 -0.562,1.051 0,0.061 -0.301,0.556 -0.67,1.099 -0.369,0.544 -0.72,1.117 -0.781,1.275 -0.096,0.251 -3.893,6.031 -4.25,6.47 -0.074,0.091 -0.843,1.118 -1.709,2.281 -0.865,1.162 -1.721,2.287 -1.901,2.5 -0.18,0.212 -0.905,1.098 -1.611,1.969 -4.206,5.187 -11.277,12.297 -16.744,16.836 -0.688,0.57 -1.288,1.086 -1.334,1.146 -0.046,0.06 -0.608,0.518 -1.25,1.018 -0.641,0.499 -1.204,0.949 -1.25,1 -0.046,0.05 -0.608,0.5 -1.25,1 -0.641,0.499 -1.204,0.951 -1.25,1.004 -0.046,0.052 -0.346,0.277 -0.666,0.499 -0.321,0.222 -0.727,0.536 -0.903,0.697 -0.176,0.161 -0.626,0.501 -1,0.755 -0.374,0.254 -0.766,0.536 -0.871,0.628 -0.104,0.092 -0.366,0.292 -0.583,0.444 -0.216,0.153 -1.009,0.731 -1.761,1.285 -0.752,0.555 -2.064,1.478 -2.916,2.053 -0.852,0.575 -1.587,1.085 -1.633,1.134 -0.046,0.049 -0.533,0.387 -1.083,0.753 -0.55,0.365 -1.038,0.706 -1.084,0.756 -0.046,0.051 -0.383,0.272 -0.75,0.492 -0.366,0.219 -0.704,0.441 -0.75,0.492 -0.106,0.12 -2.21,1.494 -3.083,2.014 -0.367,0.219 -0.754,0.476 -0.861,0.571 -0.108,0.095 -1.148,0.769 -2.313,1.499 -1.165,0.729 -2.044,1.351 -1.954,1.381 0.263,0.088 6.238,-1.73 10.628,-3.234 0.917,-0.314 2.229,-0.761 2.917,-0.995 1.601,-0.543 7.377,-2.683 8.25,-3.057 0.366,-0.157 0.929,-0.384 1.25,-0.505 0.529,-0.199 1.551,-0.62 2.416,-0.996 0.184,-0.08 1.309,-0.555 2.5,-1.057 2.61,-1.098 3.625,-1.552 5.917,-2.647 2.812,-1.343 6.576,-3.206 6.667,-3.298 0.046,-0.047 0.683,-0.385 1.416,-0.752 0.734,-0.366 1.359,-0.723 1.389,-0.791 0.031,-0.069 0.135,-0.125 0.232,-0.125 0.097,0 0.737,-0.338 1.424,-0.75 0.686,-0.413 1.283,-0.75 1.326,-0.75 0.312,0 10.48,-6.441 11.629,-7.367 0.092,-0.073 1.592,-1.193 3.334,-2.487 1.741,-1.294 3.204,-2.4 3.25,-2.458 0.046,-0.058 0.458,-0.403 0.916,-0.768 0.459,-0.365 0.915,-0.74 1.014,-0.834 0.1,-0.093 0.585,-0.507 1.078,-0.92 3.767,-3.151 9.973,-9.306 12.598,-12.495 0.263,-0.319 0.589,-0.7 0.727,-0.847 0.297,-0.318 0.684,-0.783 1.584,-1.906 0.366,-0.457 0.796,-0.976 0.954,-1.153 0.159,-0.176 0.496,-0.627 0.75,-1.001 0.253,-0.375 0.503,-0.718 0.554,-0.764 0.1,-0.09 1.102,-1.425 1.455,-1.94 0.117,-0.17 0.708,-1.023 1.314,-1.893 1.458,-2.095 1.611,-2.334 1.497,-2.334 -0.054,0 -0.489,0.581 -0.966,1.292 -2.108,3.136 -6.165,8.407 -6.248,8.119 -0.025,-0.089 -0.129,-0.874 -0.231,-1.744 -0.102,-0.871 -0.295,-2.521 -0.429,-3.667 -0.662,-5.649 -0.685,-6.003 -0.43,-6.473 0.445,-0.82 2.363,-4.693 2.363,-4.773 0,-0.043 0.182,-0.474 0.405,-0.958 2.804,-6.077 5.267,-15.407 5.997,-22.713 1.915,-19.16 5.292,-36.572 9.007,-46.443 0.869,-2.311 0.632,-1.962 -0.955,1.402 -3.488,7.396 -6.125,13.752 -8.968,21.625 -1.423,3.939 -1.674,4.412 -1.32,2.486 0.091,-0.497 0.352,-2.028 0.58,-3.403 3.077,-18.577 8.819,-34.336 16.818,-46.166 11.95,-17.67 38.034,-34.682 69.019,-45.013 3.664,-1.221 4.272,-1.504 1.917,-0.893 M 130.75,85.667 c 0.275,0.182 0.575,0.331 0.667,0.331 0.091,0 -0.059,-0.149 -0.334,-0.331 -0.275,-0.182 -0.575,-0.331 -0.666,-0.331 -0.092,0 0.058,0.149 0.333,0.331 m 146.622,85.666 c 0,0.321 0.034,0.452 0.076,0.292 0.042,-0.16 0.042,-0.423 0,-0.583 -0.042,-0.161 -0.076,-0.03 -0.076,0.291 m -15.844,56.278 c -0.296,0.514 -0.512,0.96 -0.482,0.991 0.031,0.03 0.297,-0.365 0.593,-0.88 0.295,-0.514 0.512,-0.96 0.481,-0.99 -0.03,-0.031 -0.297,0.365 -0.592,0.879 M 260.103,230 c -0.243,0.367 -0.384,0.666 -0.314,0.665 0.07,0 0.299,-0.3 0.508,-0.666 0.49,-0.859 0.375,-0.858 -0.194,0.001"
       stroke="none"
       fill="#e10473"
       fill-rule="evenodd"
       style="fill:#213547;fill-opacity:1" />
  </g>
  <path
     style="fill:#213547;fill-opacity:1;stroke:#000000;stroke-width:0"
     d="M -367.79661,415.25424 -300,369.49153 l 59.32203,-128.81356 115.25424,-77.96611 -123.72881,59.32204 -38.98305,42.37288 -38.98305,106.77966 z"
     id="path13603"
     sodipodi:nodetypes="cccccccc" />
  <path
     style="fill:#213547;fill-opacity:1;stroke:#000000;stroke-width:0"
     d="m -254.935,222.6157 h -55.93221 l -23.72881,35.59322 30.50848,-23.72881 40.67796,-3.38983 z"
     id="path13607" />
  <path
     style="fill:#213547;fill-opacity:1;stroke:#000000;stroke-width:0"
     d="m -327.11864,288.13559 -69.49153,-37.28813 -140.67796,-28.81356 140.67796,69.49153 z"
     id="path13609"
     sodipodi:nodetypes="ccccc" />
  <path
     style="fill:#213547;fill-opacity:1;stroke:#000000;stroke-width:0"
     d="m -332.20339,296.61017 -111.86441,6.77966 77.96611,16.94915 z"
     id="path13660"
     sodipodi:nodetypes="cccc" />
  <path
     style="fill:#213547;fill-opacity:1;stroke:#000000;stroke-width:0"
     d="m -333.89831,368.10169 -62.71186,23.72882 -47.45762,83.05085 z"
     id="path13662"
     sodipodi:nodetypes="cccc" />
  <path
     style="fill:#213547;fill-opacity:1;stroke:#000000;stroke-width:0"
     d="m -12.557157,507.51834 11.51073,-9.41787 12.55715,7.32501 -13.60358,7.32501 z"
     id="path13664" />
</svg>
